<svg width="152" height="34" viewBox="0 0 152 34" fill="none" xmlns="http://www.w3.org/2000/svg">
    <path d="M22.8846 10.7743C22.8846 12.9245 21.1446 14.6676 18.998 14.6676H3.72471C1.66761 14.6676 -2.27125e-07 12.9972 0 10.9365C2.27126e-07 8.87584 1.66762 7.20532 3.72472 7.20532H22.8846V10.7743Z" fill="#FD5444"/>
    <path d="M22.8846 22.3467C22.8846 24.4565 21.1772 26.1669 19.0709 26.1669H3.81367C1.70744 26.1669 -2.3255e-07 24.4565 0 22.3466C2.3255e-07 20.2368 1.70744 18.5264 3.81367 18.5264H19.0709C21.1772 18.5264 22.8846 20.2368 22.8846 22.3467Z" fill="#FD5444"/>
    <path d="M89.9805 21.4246C87.968 21.4246 86.3667 19.9071 86.3667 17.1029V10.2777C86.3667 8.85811 85.2166 7.70728 83.7977 7.70728C82.3789 7.70728 81.2288 8.85811 81.2288 10.2777V17.1029C81.2288 23.6101 85.2087 25.9569 88.9455 25.9569C90.8141 25.9569 92.3677 25.2639 93.302 23.8618H93.374V25.5155C93.374 28.2119 92.3317 29.4401 89.9602 29.4401C88.2354 29.4401 87.301 28.859 86.7623 27.6726H81.3719C82.2703 32.0587 85.756 34.0001 89.9602 34.0001C94.8111 34.0001 98.7636 31.5195 98.7636 25.3358V7.70728H97.4631C95.3362 7.70728 93.6113 9.43258 93.6113 11.5609V17.1029C93.6113 19.8352 91.9205 21.4246 89.9805 21.4246Z" fill="#241815"/>
    <path d="M142.003 25.9909C136.169 25.9909 132.499 21.8059 132.499 16.6435C132.499 11.4811 136.151 7.29614 142.003 7.29614C147.855 7.29614 151.179 11.4811 151.179 16.6435C151.179 17.1519 151.143 17.6508 151.073 18.1371H139.937C139.925 16.348 141.371 14.8913 143.16 14.8913H146.57V14.8458C146.029 12.8631 144.46 11.6152 142.003 11.6152C138.916 11.6152 137.225 13.8665 137.225 16.6435C137.225 19.4206 138.957 21.6733 142.003 21.6733C143.687 21.6733 145.309 20.9787 145.752 19.8895H150.664C149.745 23.4076 146.543 25.9909 142.003 25.9909Z" fill="#241815"/>
    <path d="M45.1868 25.9928V15.5309C45.1868 13.1582 46.3366 12.3313 47.9177 12.3313C48.7455 12.3313 49.451 12.548 49.9423 13.078C50.4106 13.5832 50.6845 14.373 50.6845 15.5309V25.5255H56.0744V15.5309C56.0744 9.81469 52.7686 7.2981 48.4566 7.2981C45.9054 7.2981 43.8572 8.2688 42.5277 10.0664H42.4558C41.1264 8.2688 39.0422 7.2981 36.527 7.2981C32.215 7.2981 28.9092 9.81469 28.9092 15.5309V25.5255H34.2991V15.5309C34.2991 13.1582 35.449 12.3313 37.0659 12.3313C38.647 12.3313 39.7968 13.1582 39.7968 15.5309V22.1392C39.7968 24.2675 41.5212 25.9928 43.6485 25.9928H45.1868Z" fill="#241815"/>
    <path d="M78.0112 16.8252C78.0112 11.0011 74.13 7.2981 68.5246 7.2981C62.9192 7.2981 58.9666 11.2528 58.9666 16.6454C58.9666 23.2246 63.7097 25.9928 67.4823 25.9928C70.1056 25.9928 72.1181 24.6986 72.9805 22.7572H73.0524V25.5255H78.0112V16.8252ZM68.5246 20.9596C66.0811 20.9596 64.4283 19.198 64.4283 16.6454C64.4283 14.0929 66.0811 12.3313 68.5246 12.3313C70.968 12.3313 72.6209 14.0929 72.6209 16.6454C72.6209 19.198 70.968 20.9596 68.5246 20.9596Z" fill="#241815"/>
    <path d="M102.382 33.1113H107.771V23.6919H107.843C108.85 25.094 110.646 25.9928 112.91 25.9928C116.683 25.9928 121.426 23.2246 121.426 16.6454C121.426 11.2528 117.474 7.2981 111.868 7.2981C106.262 7.2981 102.382 11.0011 102.382 16.8252V33.1113ZM111.868 12.3313C114.311 12.3313 115.964 14.0929 115.964 16.6454C115.964 19.198 114.311 20.9596 111.868 20.9596C109.424 20.9596 107.771 19.198 107.771 16.6454C107.771 14.0929 109.424 12.3313 111.868 12.3313Z" fill="#241815"/>
    <path d="M129.712 25.5255V3.85359C129.712 1.72531 127.988 0 125.861 0H124.323V25.5255H129.712Z" fill="#241815"/>
</svg>